<svg xmlns="http://www.w3.org/2000/svg" viewBox="0 0 32 32" id="Office">
  <path d="M10.027 4A5.032 5.032 0 0 0 5 9.035v1.444a.5.5 0 0 0 .5.5h21.986a.5.5 0 0 0 .5-.5V9.035c0-2.78-2.25-5.035-5.027-5.035H10.027zm0 1H22.96a4.012 4.012 0 0 1 4.027 4.035v.944H6v-.944A4.012 4.012 0 0 1 10.027 5zM12.5 6a.499.5 0 0 0-.5.5.499.5 0 0 0 .5.5.499.5 0 0 0 .5-.5.499.5 0 0 0-.5-.5zm4 0a.499.5 0 0 0-.5.5.499.5 0 0 0 .5.5.499.5 0 0 0 .5-.5.499.5 0 0 0-.5-.5zm4.002 0a.499.5 0 0 0-.5.5.499.5 0 0 0 .5.5.499.5 0 0 0 .498-.5.499.5 0 0 0-.498-.5zM10.5 8a.499.5 0 0 0-.5.5.499.5 0 0 0 .5.5.499.5 0 0 0 .5-.5.499.5 0 0 0-.5-.5zm4 0a.499.5 0 0 0-.5.5.499.5 0 0 0 .5.5.499.5 0 0 0 .5-.5.499.5 0 0 0-.5-.5zm4.002 0a.499.5 0 0 0-.5.5.499.5 0 0 0 .5.5.499.5 0 0 0 .498-.5.499.5 0 0 0-.498-.5zM22.5 8a.499.5 0 0 0-.5.5.499.5 0 0 0 .5.5.499.5 0 0 0 .5-.5.499.5 0 0 0-.5-.5zM5.514 12a.5.5 0 1 0 0 1h21.965a.5.5 0 1 0 0-1H5.514zM6 14c-1.097 0-2 .89-2 1.984v2.032C4 19.109 4.903 20 6 20h21c1.097 0 2-.89 2-1.984v-2.032A1.999 1.999 0 0 0 27 14H6zm1.115 1h3.608a2.135 2.135 0 0 0-.407 1.25v1.5c0 .674-.598 1.25-1.394 1.25-.797 0-1.395-.576-1.395-1.25l-.002-1.5a2.14 2.14 0 0 0-.41-1.25zm5.596 0c.796 0 1.393.576 1.393 1.25l.001 1.5c0 .465.152.894.407 1.25H10.91c.255-.356.406-.785.406-1.25v-1.5c0-.674.598-1.25 1.395-1.25zm1.986 0h3.604a2.135 2.135 0 0 0-.406 1.25v1.5c0 .674-.598 1.25-1.395 1.25-.796 0-1.395-.576-1.395-1.25l-.001-1.502c0-.465-.152-.893-.407-1.248zm5.592 0c.797 0 1.395.576 1.395 1.25l.002 1.5c0 .465.15.894.406 1.25h-3.604c.255-.356.407-.785.407-1.25v-1.5c0-.674.598-1.25 1.394-1.25zm1.988 0h3.602a2.143 2.143 0 0 0-.404 1.25v1.5c0 .674-.598 1.25-1.395 1.25-.796 0-1.394-.576-1.394-1.25l-.002-1.502c0-.465-.152-.893-.407-1.248zm-16.672.07h.004a.5.5 0 0 0 .008 0c.546.183.908.644.908 1.172l.002 1.5c0 .466.152.894.407 1.25L6 18.994a.98.98 0 0 1-1-.984v-2.031c0-.414.245-.761.605-.909zm21.772 0c.37.146.623.495.623.914v2.032A.98.98 0 0 1 27 19h-.932c.255-.356.407-.785.407-1.25v-1.5c0-.168.036-.326.103-.473a1.26 1.26 0 0 1 .291-.398c.125-.115.276-.21.445-.275a.5.5 0 0 0 .063-.032v-.002zM5.514 20.994a.5.5 0 1 0 0 1h21.965a.5.5 0 1 0 0-1H5.514zm-.014 2.01a.5.5 0 0 0-.5.5v.75a3.738 3.738 0 0 0 1.096 2.648c.168.17.352.323.55.457h.002c.199.135.41.251.633.346h.002c.223.095.457.169.7.219h.001c.243.05.493.076.75.076H24.264c1.03 0 1.964-.42 2.64-1.098A3.734 3.734 0 0 0 28 24.254v-.75a.5.5 0 0 0-.5-.5h-22zm.5 1h21v.25c0 .383-.075.745-.213 1.074A2.724 2.724 0 0 1 24.264 27H8.734a2.79 2.79 0 0 1-.552-.055H8.18a2.745 2.745 0 0 1-.514-.158h-.002a2.729 2.729 0 0 1-.463-.252H7.2a2.725 2.725 0 0 1-.986-1.207A2.78 2.78 0 0 1 6 24.254v-.25z" color="#000" font-family="sans-serif" font-weight="400" overflow="visible" style="line-height:normal;text-indent:0;text-align:start;text-decoration-line:none;text-decoration-style:solid;text-decoration-color:#000;text-transform:none;block-progression:tb;white-space:normal;isolation:auto;mix-blend-mode:normal;solid-color:#000;solid-opacity:1" fill="#ffffff" class="color000000 svgShape"></path>
</svg>
