<svg xmlns="http://www.w3.org/2000/svg" viewBox="0 0 24 24" id="wine">
  <path d="M15.5,10a5.48,5.48,0,0,0,3.08-.94h0a5.48,5.48,0,0,0,2.1-5.89l-.2-.8-.5-2A.5.5,0,0,0,19.5,0H5.5A.5.5,0,0,0,5,.38l-.5,2-.2.8A5.48,5.48,0,0,0,6.42,9.06,5.48,5.48,0,0,0,9.5,10,1.51,1.51,0,0,1,11,11.5v9.2l-.06,0L6.28,23.05A.5.5,0,0,0,6.5,24h12a.5.5,0,0,0,.22-.95l-4.66-2.33-.06,0V11.5A1.5,1.5,0,0,1,15.5,10ZM5.89,1H19.11l.25,1H5.64ZM16.38,23H8.62l2.77-1.38a2.51,2.51,0,0,1,2.23,0Zm-4.9-13h2A2.48,2.48,0,0,0,13,11.5v8.91a3.49,3.49,0,0,0-1,0V11.5A2.44,2.44,0,0,0,11.49,10Zm-2-1A4.48,4.48,0,0,1,7,8.24a4.48,4.48,0,0,1-1.7-4.82L5.39,3H19.61l.11.42A4.48,4.48,0,0,1,18,8.24,4.48,4.48,0,0,1,15.5,9Z" fill="#ffffff" class="color000000 svgShape"></path>
</svg>
