<svg xmlns="http://www.w3.org/2000/svg" viewBox="0 0 512 512" id="locker">
  <path d="M256,158a7.5,7.5,0,1,0-7.5-7.5A7.5,7.5,0,0,0,256,158Zm73.44,80.39a22.35,22.35,0,0,0-17.07,2.24L287,255.28a53.83,53.83,0,0,0-62.43.39l-24.84-14.34a22.5,22.5,0,0,0-22.5,39l25,14.47c-.14,1.56-.22,3.13-.22,4.73A54.08,54.08,0,0,0,234.39,349v23a22.5,22.5,0,0,0,45,0V348.18a54,54,0,0,0,30.38-54.09l25.1-14.49a22.5,22.5,0,0,0-5.43-41.22ZM205.88,279.54l-21.17-12.23a7.5,7.5,0,1,1,7.5-13l21.12,12.2A54.11,54.11,0,0,0,205.88,279.54ZM264.39,372a7.5,7.5,0,0,1-15,0V353.08a54.09,54.09,0,0,0,6.65.42,53.46,53.46,0,0,0,8.35-.65ZM256,338.5a38.84,38.84,0,0,1-11.87-1.85l-.06,0A39,39,0,1,1,256,338.5Zm74.83-76.45a7.47,7.47,0,0,1-3.5,4.56L306,279a53.86,53.86,0,0,0-7.6-12.93l21.5-12.41a7.51,7.51,0,0,1,10.25,2.74A7.5,7.5,0,0,1,330.87,262.05ZM444.5,0H67.5A37.54,37.54,0,0,0,30,37.5v407a37.54,37.54,0,0,0,33.5,37.28v7.72A22.52,22.52,0,0,0,86,512h55a22.52,22.52,0,0,0,22.5-22.5V482h185v7.5A22.52,22.52,0,0,0,371,512h55a22.52,22.52,0,0,0,22.5-22.5v-7.72A37.54,37.54,0,0,0,482,444.5V37.5A37.54,37.54,0,0,0,444.5,0Zm-296,489.5A7.5,7.5,0,0,1,141,497H86a7.5,7.5,0,0,1-7.5-7.5V482h70Zm285,0A7.5,7.5,0,0,1,426,497H371a7.5,7.5,0,0,1-7.5-7.5V482h70Zm33.5-45A22.52,22.52,0,0,1,444.5,467H67.5A22.52,22.52,0,0,1,45,444.5V37.5A22.52,22.52,0,0,1,67.5,15h377A22.52,22.52,0,0,1,467,37.5ZM432,89V72.5A22.52,22.52,0,0,0,409.5,50h-307A22.52,22.52,0,0,0,80,72.5v337A22.52,22.52,0,0,0,102.5,432h307A22.52,22.52,0,0,0,432,409.5V393a22.52,22.52,0,0,0,14.5-21V357A22.52,22.52,0,0,0,432,336V269.52a22.52,22.52,0,0,0,14.5-21v-15a22.52,22.52,0,0,0-14.5-21V146a22.52,22.52,0,0,0,14.5-21V110A22.52,22.52,0,0,0,432,89ZM95,151h13.08a7.5,7.5,0,0,1,7.5,7.5v165a7.5,7.5,0,0,1-7.5,7.5H95ZM417,409.5a7.5,7.5,0,0,1-7.5,7.5h-307a7.51,7.51,0,0,1-7.5-7.5V346h13.08a22.52,22.52,0,0,0,22.5-22.5v-165a22.52,22.52,0,0,0-22.5-22.5H95V72.5a7.51,7.51,0,0,1,7.5-7.5h307a7.5,7.5,0,0,1,7.5,7.5V88.62A22.54,22.54,0,0,0,401.5,110v15A22.54,22.54,0,0,0,417,146.38v65.74a22.54,22.54,0,0,0-15.5,21.38v15A22.54,22.54,0,0,0,417,269.88v65.74A22.54,22.54,0,0,0,401.5,357v15A22.54,22.54,0,0,0,417,393.38ZM431.5,372a7.5,7.5,0,0,1-15,0V357a7.5,7.5,0,0,1,15,0Zm0-123.5a7.5,7.5,0,0,1-15,0v-15a7.5,7.5,0,0,1,15,0Zm0-123.5a7.5,7.5,0,0,1-15,0V110a7.5,7.5,0,0,1,15,0ZM256,277a22.5,22.5,0,1,0,22.5,22.5A22.52,22.52,0,0,0,256,277Zm0,30a7.5,7.5,0,1,1,7.5-7.5A7.51,7.51,0,0,1,256,307ZM211.46,195c.2.2.41.38.62.56a62.86,62.86,0,0,0,87.84,0c.21-.18.42-.36.62-.56s.38-.41.56-.62a62.84,62.84,0,0,0,0-87.83,8.39,8.39,0,0,0-.56-.63c-.2-.2-.41-.38-.62-.56a62.86,62.86,0,0,0-87.84,0c-.21.18-.42.36-.62.56a8.39,8.39,0,0,0-.56.63,62.84,62.84,0,0,0,0,87.83C211.08,194.62,211.26,194.83,211.46,195Zm2.92-52H208.6a47.66,47.66,0,0,1,8.6-20.69l4.07,4.07a7.5,7.5,0,0,0,10.61-10.61l-4.07-4.07a47.78,47.78,0,0,1,20.69-8.6v5.78a7.5,7.5,0,0,0,15,0v-5.78a47.78,47.78,0,0,1,20.69,8.6l-4.06,4.07a7.5,7.5,0,0,0,10.6,10.61l4.07-4.07A47.66,47.66,0,0,1,303.4,143h-5.78a7.5,7.5,0,0,0,0,15h5.78a47.66,47.66,0,0,1-8.6,20.69l-4.07-4.06a7.5,7.5,0,1,0-10.6,10.6l4.06,4.07a47.66,47.66,0,0,1-20.69,8.6v-5.78a7.5,7.5,0,0,0-15,0v5.78a47.66,47.66,0,0,1-20.69-8.6l4.07-4.07a7.5,7.5,0,0,0-10.61-10.6l-4.07,4.06A47.66,47.66,0,0,1,208.6,158h5.78a7.5,7.5,0,0,0,0-15Z" fill="#ffffff" class="color000000 svgShape"></path>
</svg>
